TEMP-Light.ufo
<glyph name="numbersign" format="1">
  <advance width="518"/>
  <unicode hex="0023"/>
  <note>
    numbersign
  </note>
  <outline>
    <contour>
      <point x="177" y="141" type="line"/>
      <point x="312" y="141" type="line"/>
      <point x="294" y="-1" type="line"/>
      <point x="318" y="-3" type="line"/>
      <point x="338" y="141" type="line"/>
      <point x="420" y="141" type="line"/>
      <point x="420" y="163" type="line"/>
      <point x="341" y="163" type="line"/>
      <point x="359" y="293" type="line"/>
      <point x="439" y="293" type="line"/>
      <point x="439" y="315" type="line"/>
      <point x="362" y="315" type="line"/>
      <point x="379" y="452" type="line"/>
      <point x="356" y="454" type="line"/>
      <point x="336" y="315" type="line"/>
      <point x="201" y="315" type="line"/>
      <point x="220" y="452" type="line"/>
      <point x="195" y="454" type="line"/>
      <point x="175" y="315" type="line"/>
      <point x="91" y="315" type="line"/>
      <point x="91" y="293" type="line"/>
      <point x="173" y="293" type="line"/>
      <point x="155" y="163" type="line"/>
      <point x="73" y="163" type="line"/>
      <point x="73" y="141" type="line"/>
      <point x="152" y="141" type="line"/>
      <point x="133" y="-1" type="line"/>
      <point x="157" y="-3" type="line"/>
    </contour>
    <contour>
      <point x="198" y="293" type="line"/>
      <point x="334" y="293" type="line"/>
      <point x="316" y="163" type="line"/>
      <point x="180" y="163" type="line"/>
    </contour>
  </outline>
</glyph>
<glyph name="period" format="1">
  <advance width="170"/>
  <unicode hex="002E"/>
  <note>
    period
  </note>
  <outline>
    <contour>
      <point x="104" y="0" type="line"/>
      <point x="104" y="39" type="line"/>
      <point x="65" y="39" type="line"/>
      <point x="65" y="0" type="line"/>
    </contour>
  </outline>
</glyph>
<glyph name="question" format="1">
  <advance width="434"/>
  <unicode hex="003F"/>
  <note>
    question
  </note>
  <outline>
    <contour>
      <point x="207" y="112" type="line"/>
      <point x="207" y="154" type="line" smooth="yes"/>
      <point x="207" y="174"/>
      <point x="209" y="178"/>
      <point x="224" y="189" type="curve" smooth="yes"/>
      <point x="306" y="251" type="line" smooth="yes"/>
      <point x="337" y="274"/>
      <point x="343" y="299"/>
      <point x="343" y="338" type="curve" smooth="yes"/>
      <point x="343" y="415"/>
      <point x="308" y="450"/>
      <point x="223" y="450" type="curve" smooth="yes"/>
      <point x="168" y="450"/>
      <point x="118" y="438"/>
      <point x="90" y="426" type="curve"/>
      <point x="90" y="410" type="line" smooth="yes"/>
      <point x="90" y="392"/>
      <point x="93" y="373"/>
      <point x="99" y="357" type="curve"/>
      <point x="113" y="357" type="line"/>
      <point x="113" y="413" type="line"/>
      <point x="147" y="423"/>
      <point x="185" y="428"/>
      <point x="221" y="428" type="curve" smooth="yes"/>
      <point x="292" y="428"/>
      <point x="319" y="402"/>
      <point x="319" y="341" type="curve" smooth="yes"/>
      <point x="319" y="286" type="line"/>
      <point x="206" y="202" type="line" smooth="yes"/>
      <point x="190" y="189"/>
      <point x="184" y="180"/>
      <point x="184" y="160" type="curve" smooth="yes"/>
      <point x="184" y="112" type="line"/>
    </contour>
    <contour>
      <point x="208" y="0" type="line"/>
      <point x="208" y="54" type="line"/>
      <point x="182" y="54" type="line"/>
      <point x="182" y="0" type="line"/>
    </contour>
  </outline>
</glyph>
<glyph name="underscore" format="1">
  <advance width="399"/>
  <unicode hex="005F"/>
  <note>
    underscore
  </note>
  <outline>
    <contour>
      <point x="344" y="-17" type="line"/>
      <point x="344" y="0" type="line"/>
      <point x="54" y="0" type="line"/>
      <point x="54" y="-17" type="line"/>
    </contour>
  </outline>
</glyph>
<glyph name="exclamdown" format="1">
  <advance width="158"/>
  <unicode hex="00A1"/>
  <note>
    exclamdown
  </note>
  <outline>
    <contour>
      <point x="91" y="0" type="line"/>
      <point x="91" y="150" type="line"/>
      <point x="86" y="315" type="line"/>
      <point x="72" y="315" type="line"/>
      <point x="67" y="149" type="line"/>
      <point x="67" y="0" type="line"/>
    </contour>
    <contour>
      <point x="92" y="389" type="line"/>
      <point x="92" y="442" type="line"/>
      <point x="66" y="442" type="line"/>
      <point x="66" y="389" type="line"/>
    </contour>
  </outline>
</glyph>
<glyph name="danda" format="1">
  <advance width="232"/>
  <unicode hex="0964"/>
  <outline>
    <contour>
      <point x="105" y="-9" type="line"/>
      <point x="127" y="-9" type="line"/>
      <point x="127" y="463" type="line"/>
      <point x="105" y="463" type="line"/>
    </contour>
  </outline>
</glyph>
<glyph name="grAdakbindi" format="1">
  <advance width="0"/>
  <unicode hex="0A01"/>
  <outline>
    <contour>
      <point x="-68" y="439" type="move" name="_top"/>
    </contour>
    <contour>
      <point x="28" y="555" type="curve"/>
      <point x="18" y="561" type="line"/>
      <point x="-9" y="523"/>
      <point x="-37" y="506"/>
      <point x="-85" y="503" type="curve"/>
      <point x="-116" y="517"/>
      <point x="-133" y="531"/>
      <point x="-154" y="561" type="curve"/>
      <point x="-165" y="555" type="line"/>
      <point x="-146" y="511"/>
      <point x="-108" y="486"/>
      <point x="-68" y="486" type="curve" smooth="yes"/>
      <point x="-28" y="486"/>
      <point x="10" y="511"/>
    </contour>
    <contour>
      <point x="-49" y="591" type="curve" smooth="yes"/>
      <point x="-49" y="602"/>
      <point x="-59" y="612"/>
      <point x="-70" y="612" type="curve" smooth="yes"/>
      <point x="-80" y="612"/>
      <point x="-91" y="602"/>
      <point x="-91" y="591" type="curve" smooth="yes"/>
      <point x="-91" y="579"/>
      <point x="-81" y="570"/>
      <point x="-70" y="570" type="curve" smooth="yes"/>
      <point x="-59" y="570"/>
      <point x="-49" y="579"/>
    </contour>
  </outline>
</glyph>
<glyph name="grI" format="1">
  <advance width="509"/>
  <unicode hex="0A07"/>
  <outline>
    <contour>
      <point x="452" y="439" type="move" name="top"/>
    </contour>
    <component base="grIri" xOffset="138"/>
    <component base="grmI"/>
  </outline>
</glyph>
<glyph name="grEE" format="1">
  <advance width="371"/>
  <unicode hex="0A0F"/>
  <outline>
    <contour>
      <point x="388" y="439" type="move" name="top"/>
    </contour>
    <component base="grIri"/>
    <component base="grmEE" xOffset="381"/>
  </outline>
</glyph>
<glyph name="grAI" format="1">
  <advance width="469"/>
  <unicode hex="0A10"/>
  <outline>
    <contour>
      <point x="491" y="439" type="move" name="top"/>
    </contour>
    <component base="grA"/>
    <component base="grmAI" xOffset="470"/>
  </outline>
</glyph>
<glyph name="grOO" format="1">
  <advance width="452"/>
  <unicode hex="0A13"/>
  <outline>
    <contour>
      <point x="390" y="153" type="curve" smooth="yes"/>
      <point x="390" y="202"/>
      <point x="370" y="249"/>
      <point x="328" y="290" type="curve"/>
      <point x="312" y="284" type="line"/>
      <point x="347" y="253"/>
      <point x="368" y="208"/>
      <point x="368" y="159" type="curve" smooth="yes"/>
      <point x="368" y="67"/>
      <point x="287" y="12"/>
      <point x="204" y="11" type="curve"/>
      <point x="114" y="54"/>
      <point x="67" y="180"/>
      <point x="67" y="310" type="curve" smooth="yes"/>
      <point x="67" y="469"/>
      <point x="131" y="594"/>
      <point x="286" y="594" type="curve" smooth="yes"/>
      <point x="334" y="594"/>
      <point x="379" y="578"/>
      <point x="434" y="552" type="curve"/>
      <point x="442" y="564" type="line"/>
      <point x="387" y="593"/>
      <point x="339" y="612"/>
      <point x="283" y="612" type="curve" smooth="yes"/>
      <point x="125" y="612"/>
      <point x="44" y="488"/>
      <point x="44" y="318" type="curve" smooth="yes"/>
      <point x="44" y="126"/>
      <point x="145" y="-4"/>
      <point x="220" y="-4" type="curve" smooth="yes"/>
      <point x="307" y="-4"/>
      <point x="390" y="57"/>
    </contour>
    <contour>
      <point x="220" y="254" type="line" smooth="yes"/>
      <point x="361" y="254"/>
      <point x="416" y="328"/>
      <point x="423" y="423" type="curve"/>
      <point x="402" y="423" type="line"/>
      <point x="394" y="334"/>
      <point x="342" y="271"/>
      <point x="220" y="271" type="curve" smooth="yes"/>
      <point x="64" y="271" type="line"/>
      <point x="64" y="253" type="line"/>
    </contour>
    <contour>
      <point x="481" y="421" type="line"/>
      <point x="481" y="439" type="line"/>
      <point x="-29" y="439" type="line"/>
      <point x="-29" y="421" type="line"/>
    </contour>
  </outline>
</glyph>
<glyph name="grKA" format="1">
  <advance width="463"/>
  <unicode hex="0A15"/>
  <outline>
    <contour>
      <point x="340" y="439" type="move" name="top"/>
    </contour>
    <contour>
      <point x="225" y="0" type="move" name="bottom"/>
    </contour>
    <contour>
      <point x="428" y="-2" type="line"/>
      <point x="363" y="190"/>
      <point x="303" y="298"/>
      <point x="176" y="298" type="curve" smooth="yes"/>
      <point x="99" y="298"/>
      <point x="42" y="252"/>
      <point x="42" y="173" type="curve" smooth="yes"/>
      <point x="42" y="100"/>
      <point x="102" y="49"/>
      <point x="178" y="49" type="curve" smooth="yes"/>
      <point x="261" y="49"/>
      <point x="361" y="120"/>
      <point x="361" y="315" type="curve" smooth="yes"/>
      <point x="361" y="352"/>
      <point x="357" y="387"/>
      <point x="352" y="427" type="curve"/>
      <point x="328" y="427" type="line"/>
      <point x="334" y="386"/>
      <point x="337" y="350"/>
      <point x="337" y="315" type="curve" smooth="yes"/>
      <point x="337" y="136"/>
      <point x="249" y="69"/>
      <point x="173" y="69" type="curve" smooth="yes"/>
      <point x="131" y="69"/>
      <point x="91" y="85"/>
      <point x="65" y="120" type="curve"/>
      <point x="64" y="131"/>
      <point x="62" y="141"/>
      <point x="62" y="153" type="curve" smooth="yes"/>
      <point x="62" y="234"/>
      <point x="108" y="278"/>
      <point x="178" y="278" type="curve" smooth="yes"/>
      <point x="233" y="278"/>
      <point x="279" y="251"/>
      <point x="322" y="192" type="curve"/>
      <point x="420" y="-6" type="line"/>
    </contour>
    <contour>
      <point x="492" y="421" type="line"/>
      <point x="492" y="439" type="line"/>
      <point x="-29" y="439" type="line"/>
      <point x="-29" y="421" type="line"/>
    </contour>
  </outline>
</glyph>
<glyph name="grTTA" format="1">
  <advance width="386"/>
  <unicode hex="0A1F"/>
  <outline>
    <contour>
      <point x="300" y="439" type="move" name="top"/>
    </contour>
    <contour>
      <point x="218" y="0" type="move" name="bottom"/>
    </contour>
    <contour>
      <point x="359" y="64" type="curve"/>
      <point x="336" y="74" type="line"/>
      <point x="310" y="49"/>
      <point x="283" y="28"/>
      <point x="249" y="15" type="curve"/>
      <point x="159" y="15"/>
      <point x="51" y="97"/>
      <point x="51" y="186" type="curve" smooth="yes"/>
      <point x="51" y="239"/>
      <point x="79" y="265"/>
      <point x="149" y="265" type="curve" smooth="yes"/>
      <point x="311" y="265" type="line"/>
      <point x="311" y="421" type="line"/>
      <point x="415" y="421" type="line"/>
      <point x="415" y="439" type="line"/>
      <point x="-29" y="439" type="line"/>
      <point x="-29" y="421" type="line"/>
      <point x="289" y="421" type="line"/>
      <point x="289" y="283" type="line"/>
      <point x="142" y="283" type="line" smooth="yes"/>
      <point x="69" y="283"/>
      <point x="28" y="248"/>
      <point x="28" y="189" type="curve" smooth="yes"/>
      <point x="28" y="87"/>
      <point x="157" y="-4"/>
      <point x="251" y="-4" type="curve" smooth="yes"/>
      <point x="277" y="-4"/>
      <point x="329" y="30"/>
    </contour>
  </outline>
</glyph>
<glyph name="grDDA" format="1">
  <advance width="450"/>
  <unicode hex="0A21"/>
  <outline>
    <contour>
      <point x="341" y="439" type="move" name="top"/>
    </contour>
    <contour>
      <point x="210" y="0" type="move" name="bottom"/>
    </contour>
    <contour>
      <point x="410" y="142" type="curve" smooth="yes"/>
      <point x="410" y="219"/>
      <point x="345" y="289"/>
      <point x="197" y="289" type="curve" smooth="yes"/>
      <point x="97" y="289"/>
      <point x="90" y="278"/>
      <point x="90" y="271" type="curve" smooth="yes"/>
      <point x="90" y="269"/>
      <point x="90" y="267"/>
      <point x="91" y="265" type="curve"/>
      <point x="112" y="260"/>
      <point x="157" y="256"/>
      <point x="196" y="256" type="curve" smooth="yes"/>
      <point x="229" y="256"/>
      <point x="257" y="260"/>
      <point x="291" y="268" type="curve"/>
      <point x="354" y="241"/>
      <point x="386" y="200"/>
      <point x="386" y="146" type="curve" smooth="yes"/>
      <point x="386" y="74"/>
      <point x="321" y="15"/>
      <point x="185" y="15" type="curve" smooth="yes"/>
      <point x="146" y="15"/>
      <point x="107" y="20"/>
      <point x="75" y="30" type="curve"/>
      <point x="65" y="42"/>
      <point x="59" y="58"/>
      <point x="59" y="76" type="curve" smooth="yes"/>
      <point x="59" y="114"/>
      <point x="92" y="145"/>
      <point x="167" y="145" type="curve" smooth="yes"/>
      <point x="235" y="145"/>
      <point x="312" y="110"/>
      <point x="369" y="74" type="curve"/>
      <point x="376" y="83" type="line"/>
      <point x="312" y="126"/>
      <point x="245" y="163"/>
      <point x="162" y="163" type="curve" smooth="yes"/>
      <point x="75" y="163"/>
      <point x="35" y="127"/>
      <point x="35" y="80" type="curve" smooth="yes"/>
      <point x="35" y="33"/>
      <point x="75" y="-4"/>
      <point x="185" y="-4" type="curve" smooth="yes"/>
      <point x="339" y="-4"/>
      <point x="410" y="64"/>
    </contour>
    <contour>
      <point x="354" y="428" type="curve"/>
      <point x="327" y="428" type="line"/>
      <point x="324" y="368"/>
      <point x="311" y="327"/>
      <point x="281" y="276" type="curve"/>
      <point x="295" y="270" type="line"/>
      <point x="331" y="319"/>
      <point x="347" y="368"/>
    </contour>
    <contour>
      <point x="479" y="421" type="line"/>
      <point x="479" y="439" type="line"/>
      <point x="-29" y="439" type="line"/>
      <point x="-29" y="421" type="line"/>
    </contour>
  </outline>
</glyph>
<glyph name="grDDHA" format="1">
  <advance width="435"/>
  <unicode hex="0A22"/>
  <outline>
    <contour>
      <point x="347" y="439" type="move" name="top"/>
    </contour>
    <contour>
      <point x="239" y="0" type="move" name="bottom"/>
    </contour>
    <contour>
      <point x="408" y="86" type="curve" smooth="yes"/>
      <point x="408" y="141"/>
      <point x="370" y="180"/>
      <point x="297" y="180" type="curve" smooth="yes"/>
      <point x="236" y="180"/>
      <point x="181" y="149"/>
      <point x="124" y="104" type="curve"/>
      <point x="132" y="90" type="line"/>
      <point x="191" y="133"/>
      <point x="242" y="162"/>
      <point x="297" y="162" type="curve" smooth="yes"/>
      <point x="323" y="162"/>
      <point x="343" y="160"/>
      <point x="368" y="149" type="curve"/>
      <point x="379" y="129"/>
      <point x="385" y="109"/>
      <point x="385" y="86" type="curve" smooth="yes"/>
      <point x="385" y="46"/>
      <point x="357" y="15"/>
      <point x="297" y="15" type="curve" smooth="yes"/>
      <point x="149" y="15"/>
      <point x="99" y="158"/>
      <point x="81" y="283" type="curve"/>
      <point x="358" y="283" type="line"/>
      <point x="357" y="426" type="line"/>
      <point x="336" y="426" type="line"/>
      <point x="336" y="301" type="line"/>
      <point x="78" y="301" type="line"/>
      <point x="17" y="354" type="line"/>
      <point x="11" y="352"/>
      <point x="8" y="349"/>
      <point x="6" y="344" type="curve"/>
      <point x="6" y="328"/>
      <point x="25" y="302"/>
      <point x="62" y="281" type="curve"/>
      <point x="80" y="140"/>
      <point x="146" y="-4"/>
      <point x="297" y="-4" type="curve" smooth="yes"/>
      <point x="370" y="-4"/>
      <point x="408" y="38"/>
    </contour>
    <contour>
      <point x="464" y="421" type="line"/>
      <point x="464" y="439" type="line"/>
      <point x="-29" y="439" type="line"/>
      <point x="-29" y="421" type="line"/>
    </contour>
  </outline>
</glyph>
<glyph name="grNNA" format="1">
  <advance width="437"/>
  <unicode hex="0A23"/>
  <outline>
    <contour>
      <point x="252" y="439" type="move" name="top"/>
    </contour>
    <contour>
      <point x="232" y="0" type="move" name="bottom"/>
    </contour>
    <contour>
      <point x="398" y="68" type="curve"/>
      <point x="375" y="81" type="line"/>
      <point x="339" y="51"/>
      <point x="305" y="31"/>
      <point x="259" y="15" type="curve"/>
      <point x="156" y="15"/>
      <point x="51" y="95"/>
      <point x="51" y="183" type="curve" smooth="yes"/>
      <point x="51" y="231"/>
      <point x="74" y="265"/>
      <point x="151" y="265" type="curve" smooth="yes"/>
      <point x="263" y="265" type="line"/>
      <point x="263" y="408" type="line"/>
      <point x="265" y="409" type="line"/>
      <point x="392" y="310" type="line"/>
      <point x="401" y="310"/>
      <point x="407" y="315"/>
      <point x="412" y="324" type="curve"/>
      <point x="275" y="419" type="line"/>
      <point x="276" y="421" type="line"/>
      <point x="466" y="421" type="line"/>
      <point x="466" y="439" type="line"/>
      <point x="-29" y="439" type="line"/>
      <point x="-29" y="421" type="line"/>
      <point x="241" y="421" type="line"/>
      <point x="241" y="283" type="line"/>
      <point x="144" y="283" type="line" smooth="yes"/>
      <point x="64" y="283"/>
      <point x="28" y="240"/>
      <point x="28" y="187" type="curve" smooth="yes"/>
      <point x="28" y="83"/>
      <point x="154" y="-4"/>
      <point x="260" y="-4" type="curve" smooth="yes"/>
      <point x="298" y="-4"/>
      <point x="353" y="28"/>
    </contour>
  </outline>
</glyph>
<glyph name="grTHA" format="1">
  <advance width="389"/>
  <unicode hex="0A25"/>
  <outline>
    <contour>
      <point x="314" y="270" type="line"/>
      <point x="314" y="288" type="line"/>
      <point x="102" y="288" type="line"/>
      <point x="102" y="270" type="line"/>
    </contour>
    <component base="grDHA"/>
  </outline>
</glyph>
<glyph name="grDA" format="1">
  <advance width="420"/>
  <unicode hex="0A26"/>
  <outline>
    <contour>
      <point x="329" y="439" type="move" name="top"/>
    </contour>
    <contour>
      <point x="232" y="0" type="move" name="bottom"/>
    </contour>
    <contour>
      <point x="396" y="69" type="curve"/>
      <point x="375" y="81" type="line"/>
      <point x="336" y="45"/>
      <point x="297" y="21"/>
      <point x="248" y="9" type="curve"/>
      <point x="184" y="30"/>
      <point x="123" y="88"/>
      <point x="101" y="195" type="curve" smooth="yes"/>
      <point x="90" y="249" type="line"/>
      <point x="340" y="249" type="line"/>
      <point x="340" y="426" type="line"/>
      <point x="318" y="426" type="line"/>
      <point x="318" y="268" type="line"/>
      <point x="86" y="268" type="line"/>
      <point x="26" y="320" type="line"/>
      <point x="20" y="318"/>
      <point x="17" y="315"/>
      <point x="15" y="310" type="curve"/>
      <point x="15" y="295"/>
      <point x="34" y="269"/>
      <point x="71" y="248" type="curve"/>
      <point x="99" y="50"/>
      <point x="210" y="-4"/>
      <point x="257" y="-4" type="curve" smooth="yes"/>
      <point x="295" y="-4"/>
      <point x="349" y="23"/>
    </contour>
    <contour>
      <point x="449" y="421" type="line"/>
      <point x="449" y="439" type="line"/>
      <point x="-29" y="439" type="line"/>
      <point x="-29" y="421" type="line"/>
    </contour>
  </outline>
</glyph>
<glyph name="grYA" format="1">
  <advance width="463"/>
  <unicode hex="0A2F"/>
  <outline>
    <contour>
      <point x="405" y="0" type="line"/>
      <point x="405" y="426" type="line"/>
      <point x="383" y="426" type="line"/>
      <point x="383" y="279" type="line"/>
      <point x="245" y="279" type="line"/>
      <point x="245" y="205" type="line" smooth="yes"/>
      <point x="245" y="144"/>
      <point x="224" y="122"/>
      <point x="167" y="122" type="curve" smooth="yes"/>
      <point x="118" y="122"/>
      <point x="69" y="139"/>
      <point x="59" y="171" type="curve"/>
      <point x="94" y="219"/>
      <point x="116" y="263"/>
      <point x="116" y="315" type="curve" smooth="yes"/>
      <point x="116" y="360"/>
      <point x="105" y="391"/>
      <point x="83" y="429" type="curve"/>
      <point x="69" y="423" type="line"/>
      <point x="89" y="389"/>
      <point x="94" y="355"/>
      <point x="94" y="318" type="curve" smooth="yes"/>
      <point x="94" y="267"/>
      <point x="71" y="225"/>
      <point x="45" y="191" type="curve" smooth="yes"/>
      <point x="40" y="184"/>
      <point x="38" y="179"/>
      <point x="38" y="174" type="curve" smooth="yes"/>
      <point x="38" y="141"/>
      <point x="102" y="101"/>
      <point x="174" y="101" type="curve" smooth="yes"/>
      <point x="235" y="101"/>
      <point x="267" y="129"/>
      <point x="267" y="205" type="curve" smooth="yes"/>
      <point x="267" y="261" type="line"/>
      <point x="383" y="261" type="line"/>
      <point x="383" y="0" type="line"/>
    </contour>
    <contour>
      <point x="492" y="421" type="line"/>
      <point x="492" y="439" type="line"/>
      <point x="-29" y="439" type="line"/>
      <point x="-29" y="421" type="line"/>
    </contour>
  </outline>
</glyph>
<glyph name="grLA" format="1">
  <advance width="470"/>
  <unicode hex="0A32"/>
  <outline>
    <contour>
      <point x="373" y="439" type="move" name="top"/>
    </contour>
    <contour>
      <point x="235" y="0" type="move" name="bottom"/>
    </contour>
    <contour>
      <point x="384" y="427" type="curve"/>
      <point x="363" y="427" type="line"/>
      <point x="349" y="294"/>
      <point x="288" y="230"/>
      <point x="235" y="205" type="curve"/>
      <point x="189" y="234"/>
      <point x="131" y="297"/>
      <point x="107" y="422" type="curve"/>
      <point x="86" y="422" type="line"/>
      <point x="112" y="289"/>
      <point x="203" y="187"/>
      <point x="239" y="187" type="curve" smooth="yes"/>
      <point x="265" y="187"/>
      <point x="373" y="262"/>
    </contour>
    <contour>
      <point x="161" y="4" type="curve"/>
      <point x="87" y="53"/>
      <point x="73" y="98"/>
      <point x="73" y="149" type="curve" smooth="yes"/>
      <point x="73" y="204"/>
      <point x="101" y="249"/>
      <point x="154" y="271" type="curve"/>
      <point x="144" y="289" type="line"/>
      <point x="88" y="264"/>
      <point x="51" y="218"/>
      <point x="51" y="149" type="curve" smooth="yes"/>
      <point x="51" y="88"/>
      <point x="78" y="44"/>
      <point x="152" y="-6" type="curve"/>
      <point x="157" y="-4"/>
      <point x="160" y="-1"/>
    </contour>
    <contour>
      <point x="419" y="149" type="curve" smooth="yes"/>
      <point x="419" y="208"/>
      <point x="384" y="258"/>
      <point x="331" y="285" type="curve"/>
      <point x="325" y="273" type="line"/>
      <point x="373" y="246"/>
      <point x="397" y="202"/>
      <point x="397" y="149" type="curve" smooth="yes"/>
      <point x="397" y="80"/>
      <point x="363" y="33"/>
      <point x="304" y="12" type="curve"/>
      <point x="305" y="5"/>
      <point x="309" y="-1"/>
      <point x="315" y="-6" type="curve"/>
      <point x="382" y="15"/>
      <point x="419" y="74"/>
    </contour>
    <contour>
      <point x="499" y="421" type="line"/>
      <point x="499" y="439" type="line"/>
      <point x="-29" y="439" type="line"/>
      <point x="-29" y="421" type="line"/>
    </contour>
  </outline>
</glyph>
<glyph name="grHA" format="1">
  <advance width="318"/>
  <unicode hex="0A39"/>
  <outline>
    <contour>
      <point x="257" y="439" type="move" name="top"/>
    </contour>
    <contour>
      <point x="167" y="0" type="move" name="bottom"/>
    </contour>
    <contour>
      <point x="268" y="96" type="curve" smooth="yes"/>
      <point x="268" y="421" type="line"/>
      <point x="347" y="421" type="line"/>
      <point x="347" y="439" type="line"/>
      <point x="-29" y="439" type="line"/>
      <point x="-29" y="421" type="line"/>
      <point x="246" y="421" type="line"/>
      <point x="246" y="94" type="line" smooth="yes"/>
      <point x="246" y="43"/>
      <point x="225" y="15"/>
      <point x="191" y="15" type="curve" smooth="yes"/>
      <point x="128" y="15"/>
      <point x="81" y="73"/>
      <point x="55" y="119" type="curve"/>
      <point x="54" y="137"/>
      <point x="54" y="152"/>
      <point x="54" y="165" type="curve" smooth="yes"/>
      <point x="54" y="213"/>
      <point x="65" y="246"/>
      <point x="147" y="246" type="curve" smooth="yes"/>
      <point x="169" y="246" type="line"/>
      <point x="169" y="264" type="line"/>
      <point x="137" y="264" type="line" smooth="yes"/>
      <point x="67" y="264"/>
      <point x="32" y="239"/>
      <point x="32" y="177" type="curve" smooth="yes"/>
      <point x="32" y="81"/>
      <point x="114" y="-4"/>
      <point x="193" y="-4" type="curve" smooth="yes"/>
      <point x="237" y="-4"/>
      <point x="268" y="28"/>
    </contour>
  </outline>
</glyph>
<glyph name="grmUU" format="1">
  <advance width="0"/>
  <unicode hex="0A42"/>
  <outline>
    <contour>
      <point x="-186" y="0" type="move" name="_bottom"/>
    </contour>
    <contour>
      <point x="-45" y="-75" type="curve"/>
      <point x="-55" y="-56" type="line"/>
      <point x="-92" y="-77"/>
      <point x="-138" y="-91"/>
      <point x="-186" y="-91" type="curve" smooth="yes"/>
      <point x="-222" y="-91"/>
      <point x="-265" y="-84"/>
      <point x="-310" y="-68" type="curve"/>
      <point x="-315" y="-80" type="line"/>
      <point x="-270" y="-100"/>
      <point x="-226" y="-111"/>
      <point x="-181" y="-111" type="curve" smooth="yes"/>
      <point x="-131" y="-111"/>
      <point x="-76" y="-95"/>
    </contour>
    <contour>
      <point x="-44" y="-168" type="curve"/>
      <point x="-54" y="-149" type="line"/>
      <point x="-91" y="-170"/>
      <point x="-136" y="-185"/>
      <point x="-184" y="-185" type="curve" smooth="yes"/>
      <point x="-220" y="-185"/>
      <point x="-263" y="-178"/>
      <point x="-309" y="-162" type="curve"/>
      <point x="-314" y="-173" type="line"/>
      <point x="-268" y="-194"/>
      <point x="-225" y="-204"/>
      <point x="-179" y="-204" type="curve" smooth="yes"/>
      <point x="-130" y="-204"/>
      <point x="-75" y="-189"/>
    </contour>
  </outline>
</glyph>
<glyph name="grJxA" format="1">
  <advance width="386"/>
  <unicode hex="0A5B"/>
  <outline>
    <contour>
      <point x="107" y="0" type="line"/>
      <point x="107" y="249" type="line"/>
      <point x="307" y="249" type="line"/>
      <point x="307" y="0" type="line"/>
      <point x="328" y="0" type="line"/>
      <point x="328" y="421" type="line"/>
      <point x="415" y="421" type="line"/>
      <point x="415" y="439" type="line"/>
      <point x="-29" y="439" type="line"/>
      <point x="-29" y="421" type="line"/>
      <point x="307" y="421" type="line"/>
      <point x="307" y="268" type="line"/>
      <point x="106" y="268" type="line"/>
      <point x="46" y="320" type="line"/>
      <point x="39" y="318"/>
      <point x="36" y="315"/>
      <point x="34" y="310" type="curve"/>
      <point x="34" y="297"/>
      <point x="49" y="274"/>
      <point x="85" y="254" type="curve"/>
      <point x="85" y="0" type="line"/>
    </contour>
    <contour>
      <point x="227" y="13" type="curve" smooth="yes"/>
      <point x="227" y="25"/>
      <point x="217" y="34"/>
      <point x="206" y="34" type="curve" smooth="yes"/>
      <point x="195" y="34"/>
      <point x="185" y="25"/>
      <point x="185" y="13" type="curve" smooth="yes"/>
      <point x="185" y="1"/>
      <point x="194" y="-8"/>
      <point x="206" y="-8" type="curve" smooth="yes"/>
      <point x="217" y="-8"/>
      <point x="227" y="1"/>
    </contour>
  </outline>
</glyph>
<glyph name="grTwo" format="1">
  <advance width="355"/>
  <unicode hex="0A68"/>
  <outline>
    <contour>
      <point x="294" y="294" type="curve" smooth="yes"/>
      <point x="294" y="373"/>
      <point x="237" y="424"/>
      <point x="146" y="424" type="curve" smooth="yes"/>
      <point x="113" y="424"/>
      <point x="70" y="416"/>
      <point x="44" y="409" type="curve"/>
      <point x="47" y="394" type="line"/>
      <point x="131" y="399" type="line" smooth="yes"/>
      <point x="185" y="402"/>
      <point x="215" y="395"/>
      <point x="245" y="383" type="curve"/>
      <point x="262" y="357"/>
      <point x="270" y="329"/>
      <point x="270" y="294" type="curve" smooth="yes"/>
      <point x="270" y="241"/>
      <point x="236" y="200"/>
      <point x="181" y="177" type="curve"/>
      <point x="48" y="196" type="line"/>
      <point x="46" y="194"/>
      <point x="44" y="190"/>
      <point x="44" y="186" type="curve" smooth="yes"/>
      <point x="44" y="168"/>
      <point x="86" y="159"/>
      <point x="136" y="159" type="curve" smooth="yes"/>
      <point x="223" y="159"/>
      <point x="294" y="223"/>
    </contour>
    <contour>
      <point x="312" y="-4" type="curve"/>
      <point x="189" y="172" type="line"/>
      <point x="162" y="167" type="line"/>
      <point x="299" y="-9" type="line"/>
      <point x="305" y="-9"/>
      <point x="309" y="-7"/>
    </contour>
  </outline>
</glyph>
<glyph name="grFive" format="1">
  <advance width="389"/>
  <unicode hex="0A6B"/>
  <outline>
    <contour>
      <point x="338" y="0" type="line"/>
      <point x="338" y="417" type="line"/>
      <point x="316" y="417" type="line"/>
      <point x="316" y="154" type="line"/>
      <point x="261" y="124"/>
      <point x="223" y="116"/>
      <point x="181" y="116" type="curve" smooth="yes"/>
      <point x="144" y="116"/>
      <point x="93" y="126"/>
      <point x="74" y="160" type="curve"/>
      <point x="112" y="211"/>
      <point x="130" y="257"/>
      <point x="130" y="303" type="curve" smooth="yes"/>
      <point x="130" y="345"/>
      <point x="115" y="380"/>
      <point x="88" y="419" type="curve"/>
      <point x="75" y="419"/>
      <point x="69" y="414"/>
      <point x="65" y="406" type="curve"/>
      <point x="114" y="331" type="line"/>
      <point x="112" y="273"/>
      <point x="99" y="233"/>
      <point x="59" y="178" type="curve" smooth="yes"/>
      <point x="53" y="169"/>
      <point x="52" y="167"/>
      <point x="52" y="162" type="curve" smooth="yes"/>
      <point x="52" y="138"/>
      <point x="114" y="95"/>
      <point x="181" y="95" type="curve" smooth="yes"/>
      <point x="227" y="95"/>
      <point x="268" y="104"/>
      <point x="316" y="130" type="curve"/>
      <point x="318" y="129" type="line"/>
      <point x="316" y="70" type="line"/>
      <point x="316" y="0" type="line"/>
    </contour>
  </outline>
</glyph>
<glyph name="grSeven" format="1">
  <advance width="373"/>
  <unicode hex="0A6D"/>
  <outline>
    <contour>
      <point x="83" y="326" type="curve" smooth="yes"/>
      <point x="83" y="384"/>
      <point x="126" y="421"/>
      <point x="183" y="421" type="curve" smooth="yes"/>
      <point x="219" y="421"/>
      <point x="248" y="410"/>
      <point x="276" y="394" type="curve"/>
      <point x="297" y="365"/>
      <point x="305" y="327"/>
      <point x="305" y="276" type="curve" smooth="yes"/>
      <point x="305" y="157"/>
      <point x="194" y="46"/>
      <point x="29" y="10" type="curve"/>
      <point x="36" y="-4" type="line"/>
      <point x="204" y="27"/>
      <point x="329" y="144"/>
      <point x="329" y="270" type="curve" smooth="yes"/>
      <point x="329" y="368"/>
      <point x="274" y="439"/>
      <point x="183" y="439" type="curve" smooth="yes"/>
      <point x="110" y="439"/>
      <point x="58" y="394"/>
      <point x="59" y="326" type="curve" smooth="yes"/>
      <point x="59" y="273"/>
      <point x="94" y="241"/>
      <point x="140" y="216" type="curve"/>
      <point x="149" y="225" type="line"/>
      <point x="104" y="251"/>
      <point x="83" y="284"/>
    </contour>
  </outline>
</glyph>
<glyph name="grAddak" format="1">
  <advance width="0"/>
  <unicode hex="0A71"/>
  <outline>
    <contour>
      <point x="-68" y="439" type="move" name="_top"/>
    </contour>
    <contour>
      <point x="28" y="566" type="curve"/>
      <point x="18" y="573" type="line"/>
      <point x="-9" y="535"/>
      <point x="-37" y="518"/>
      <point x="-85" y="515" type="curve"/>
      <point x="-116" y="529"/>
      <point x="-133" y="543"/>
      <point x="-154" y="573" type="curve"/>
      <point x="-165" y="566" type="line"/>
      <point x="-146" y="523"/>
      <point x="-108" y="497"/>
      <point x="-68" y="497" type="curve" smooth="yes"/>
      <point x="-28" y="497"/>
      <point x="10" y="523"/>
    </contour>
  </outline>
</glyph>
<glyph name="grEkonkar" format="1">
  <advance width="787"/>
  <unicode hex="0A74"/>
  <outline>
    <contour>
      <point x="738" y="153" type="curve" smooth="yes"/>
      <point x="738" y="202"/>
      <point x="718" y="249"/>
      <point x="676" y="290" type="curve"/>
      <point x="660" y="284" type="line"/>
      <point x="695" y="253"/>
      <point x="716" y="208"/>
      <point x="716" y="159" type="curve" smooth="yes"/>
      <point x="716" y="67"/>
      <point x="635" y="12"/>
      <point x="552" y="11" type="curve"/>
      <point x="462" y="54"/>
      <point x="415" y="180"/>
      <point x="415" y="310" type="curve" smooth="yes"/>
      <point x="415" y="469"/>
      <point x="489" y="594"/>
      <point x="618" y="594" type="curve" smooth="yes"/>
      <point x="659" y="594"/>
      <point x="702" y="575"/>
      <point x="761" y="534" type="curve"/>
      <point x="768" y="539" type="line"/>
      <point x="767" y="550"/>
      <point x="766" y="560"/>
      <point x="766" y="571" type="curve" smooth="yes"/>
      <point x="766" y="624"/>
      <point x="787" y="653"/>
      <point x="839" y="653" type="curve" smooth="yes"/>
      <point x="850" y="653"/>
      <point x="860" y="651"/>
      <point x="870" y="647" type="curve"/>
      <point x="919" y="610" type="line"/>
      <point x="925" y="616" type="line"/>
      <point x="892" y="655"/>
      <point x="866" y="673"/>
      <point x="829" y="673" type="curve" smooth="yes"/>
      <point x="778" y="673"/>
      <point x="750" y="643"/>
      <point x="750" y="596" type="curve" smooth="yes"/>
      <point x="750" y="584"/>
      <point x="752" y="570"/>
      <point x="756" y="555" type="curve"/>
      <point x="755" y="554" type="line"/>
      <point x="702" y="592"/>
      <point x="658" y="612"/>
      <point x="615" y="612" type="curve" smooth="yes"/>
      <point x="479" y="612"/>
      <point x="392" y="488"/>
      <point x="392" y="318" type="curve" smooth="yes"/>
      <point x="392" y="126"/>
      <point x="493" y="-4"/>
      <point x="568" y="-4" type="curve" smooth="yes"/>
      <point x="655" y="-4"/>
      <point x="738" y="57"/>
    </contour>
    <contour>
      <point x="568" y="254" type="line" smooth="yes"/>
      <point x="709" y="254"/>
      <point x="764" y="328"/>
      <point x="771" y="423" type="curve"/>
      <point x="750" y="423" type="line"/>
      <point x="742" y="334"/>
      <point x="690" y="271"/>
      <point x="568" y="271" type="curve" smooth="yes"/>
      <point x="412" y="271" type="line"/>
      <point x="412" y="253" type="line"/>
    </contour>
    <contour>
      <point x="808" y="421" type="line"/>
      <point x="808" y="439" type="line"/>
      <point x="355" y="439" type="line"/>
      <point x="355" y="421" type="line"/>
    </contour>
    <component base="grOne"/>
  </outline>
</glyph>
<glyph name="emdash" format="1">
  <advance width="461"/>
  <unicode hex="2014"/>
  <note>
    emdash
  </note>
  <outline>
    <contour>
      <point x="414" y="186" type="line"/>
      <point x="414" y="208" type="line"/>
      <point x="47" y="208" type="line"/>
      <point x="47" y="186" type="line"/>
    </contour>
  </outline>
</glyph>
<glyph name="quotesinglbase" format="1">
  <advance width="173"/>
  <unicode hex="201A"/>
  <note>
    quotesinglbase
  </note>
  <outline>
    <contour>
      <point x="117" y="22" type="curve" smooth="yes"/>
      <point x="117" y="49"/>
      <point x="104" y="64"/>
      <point x="78" y="64" type="curve" smooth="yes"/>
      <point x="69" y="64"/>
      <point x="61" y="62"/>
      <point x="54" y="60" type="curve"/>
      <point x="54" y="43" type="line"/>
      <point x="95" y="43" type="line"/>
      <point x="95" y="-7"/>
      <point x="86" y="-36"/>
      <point x="68" y="-66" type="curve"/>
      <point x="84" y="-70" type="line"/>
      <point x="106" y="-42"/>
      <point x="117" y="-12"/>
    </contour>
  </outline>
</glyph>
<glyph name="guilsinglright" format="1">
  <advance width="210"/>
  <unicode hex="203A"/>
  <note>
    guilsinglright
  </note>
  <outline>
    <contour>
      <point x="159" y="189" type="line"/>
      <point x="65" y="311" type="line"/>
      <point x="50" y="305" type="line"/>
      <point x="137" y="189" type="line"/>
      <point x="50" y="72" type="line"/>
      <point x="65" y="66" type="line"/>
    </contour>
  </outline>
</glyph>
<glyph name="uni208D" format="1">
  <advance width="166"/>
  <unicode hex="208D"/>
  <note>
    uni208D
  </note>
  <outline>
    <contour>
      <point x="112" y="-143" type="curve"/>
      <point x="112" y="-123" type="line"/>
      <point x="78" y="-123" type="line"/>
      <point x="78" y="157" type="line"/>
      <point x="112" y="157" type="line"/>
      <point x="112" y="176" type="line"/>
      <point x="105" y="177"/>
      <point x="100" y="177"/>
      <point x="96" y="177" type="curve"/>
      <point x="80" y="172"/>
      <point x="62" y="158"/>
      <point x="58" y="148" type="curve"/>
      <point x="58" y="-115" type="line"/>
      <point x="62" y="-125"/>
      <point x="80" y="-138"/>
      <point x="96" y="-144" type="curve"/>
      <point x="100" y="-144"/>
      <point x="105" y="-144"/>
    </contour>
  </outline>
</glyph>
<glyph name="grRAc2" format="1">
  <advance width="0"/>
  <outline>
    <contour>
      <point x="38" y="-227" type="line"/>
      <point x="-6" y="-170"/>
      <point x="-30" y="-144"/>
      <point x="-70" y="-117" type="curve"/>
      <point x="-79" y="-126" type="line"/>
      <point x="33" y="-233" type="line"/>
    </contour>
    <contour>
      <point x="-59" y="-64" type="curve" smooth="yes"/>
      <point x="-59" y="-59"/>
      <point x="-59" y="-53"/>
      <point x="-59" y="-47" type="curve"/>
      <point x="-78" y="-47" type="line"/>
      <point x="-78" y="-117" type="line"/>
      <point x="-101" y="-128"/>
      <point x="-122" y="-135"/>
      <point x="-137" y="-146" type="curve"/>
      <point x="-136" y="-151"/>
      <point x="-134" y="-154"/>
      <point x="-131" y="-157" type="curve"/>
      <point x="-72" y="-136"/>
      <point x="-59" y="-120"/>
    </contour>
  </outline>
</glyph>
<glyph name="grYAc2" format="1">
  <advance width="447"/>
  <outline>
    <contour>
      <point x="396" y="0" type="line"/>
      <point x="396" y="426" type="line"/>
      <point x="374" y="426" type="line"/>
      <point x="374" y="287" type="line"/>
      <point x="256" y="287" type="line"/>
      <point x="206" y="147" type="line" smooth="yes"/>
      <point x="198" y="125"/>
      <point x="187" y="115"/>
      <point x="167" y="115" type="curve" smooth="yes"/>
      <point x="148" y="115"/>
      <point x="131" y="125"/>
      <point x="95" y="167" type="curve" smooth="yes"/>
      <point x="34" y="239" type="line"/>
      <point x="28" y="232" type="line"/>
      <point x="105" y="121"/>
      <point x="131" y="94"/>
      <point x="170" y="94" type="curve" smooth="yes"/>
      <point x="196" y="94"/>
      <point x="214" y="106"/>
      <point x="225" y="138" type="curve" smooth="yes"/>
      <point x="273" y="269" type="line"/>
      <point x="374" y="269" type="line"/>
      <point x="374" y="0" type="line"/>
    </contour>
    <contour>
      <point x="461" y="421" type="line"/>
      <point x="461" y="439" type="line"/>
      <point x="-15" y="439" type="line"/>
      <point x="-15" y="421" type="line"/>
    </contour>
  </outline>
</glyph>
<glyph name="grmAI_Bindi" format="1">
  <advance width="0"/>
  <outline>
    <contour>
      <point x="-70" y="439" type="move" name="_top"/>
    </contour>
    <component base="grmAI"/>
    <component base="grBindi" xOffset="42"/>
  </outline>
</glyph>
<glyph name="grmOO_Bindi" format="1">
  <advance width="0"/>
  <outline>
    <contour>
      <point x="-65" y="439" type="move" name="_top"/>
    </contour>
    <component base="grmOO"/>
    <component base="grBindi" xOffset="36"/>
  </outline>
</glyph>
